<svg xmlns="http://www.w3.org/2000/svg" preserveAspectRatio="none" viewBox="252 -110 680 712">
  <defs>
    <path id="a" d="M0 0h738v768H0z"/>
  </defs>
  <clipPath id="b">
    <use href="#a"/>
  </clipPath>
  <clipPath id="c">
    <use href="#a"/>
  </clipPath>
  <g clip-path="url(#b)" transform="translate(189 -163)">
    <path fill="#fff" d="M312 138c-2-13 248 99 244 108l7 12c-3 13 3 13-7 19-8 22-26 63-44 62-3 17-4 66 7 81 10 14 37 27 53 36l13 5 37 20c52 28 67 39 92 94 11 30 17 55 21 86 2 14 16 22 0 35-3 1-13 36-3 68H594l-529-1 1-14 17-83 8-34c-10-16 0-27 8-42l9-23 14-35c25-51 55-74 110-88l75-18 18-6 2-2c2-4-8-31-11-38-10-27-30-57-25-88 1-7 10-33 8-38-6-17-3-22-1-39 1-2-1-17-1-20-2-24 0-38 15-57"/>
  </g>
  <g clip-path="url(#c)" transform="translate(221 -167)">
    <g fill="#2b2e58">
      <path d="M354 73q13-11 27-14 38-8 74 9 14 3 28 9c8 4 12 14 18 18 18 15 29 21 35 45l-13-17 12 22c10 27 12 66-2 93l1-13-9 25q5 4 8 11c-3 12 1 16-8 22-9 21-16 32-27 52 1 17 0 21-18 20-3 17-2 53 8 68 11 14 35 27 51 36 3 1 10 2 13 4l38 21c51 28 70 37 94 92 11 30 16 55 21 87 2 13 14 25-1 38l-8 4c-20 8-36 15-56 21-8 2-31 7-36 10a55 55 0 0 0-22 32H31l3-15q7-43 17-84l7-34c-10-16 0-27 8-42l9-23 14-35c26-51 55-74 110-88l75-18 19-6 2-2c2-4-10-31-12-38-11-27-29-57-24-87 0-8 9-34 7-39-6-17-3-22-1-39 1-2-1-17-1-20-2-24 0-38 16-57-3-13 8-24 16-33 17-18 33-27 56-35zm-48 184q5 6 8 15c4 13-1 29-7 41l-7 16c-5 10-9 23 5 30q8 3 17-1l4-2c12 4 22 8 26-9l-2-10q12 14 23 30c7 9 25 11 19 25l-1 1c-6-10-5-13-17-18-8-4-16-15-20-23-9 20-18 8-34 12l-6 17 8 6c17-5 26 2 43 2 4 0 13-5 16-2q-1 5-6 5c-12 7-18 12-31 17l-6 4c-8 3-21 8-23 16-5 14 8 22 18 28l5 1c18 5 47-11 63-19 44-25 59-57 71-105 4 1 12 5 16 2q1-2-2-8l1-1c5-1 5 1 8 4q8-12 13-25l-7-5c-10 7-6 10-14 15h-2c-2-7 7-15 5-24-2 1-7 12-8 14-4 11-9 16-16 24q9-26 2-54c-18-5-24-10-36-25-38-11-79-20-111-43q-14-9-26-22c-3 11-15 46-5 55 7 6 10 4 16 16m-36 393c11 17 33 26 52 32l11-11c5-5 14-22 19-24h1c1 2-8 34-9 39 92 13 129-82 163-148l11-26 20-47c-20-14-55-27-61-53-6-21-3-46-2-68l-15 40-12 21-17 30c-24 33-58 64-97 77-18 7-48-6-57 18-14 39-21 80-7 120m214-300c5-1 12-5 7-10l-8 4zm-132 47c-4 0-12 0-14 3l1 3q8-1 14-6zm148-119q3 1 4 4c3 3 2 13 7 14l6-7 4-11-10 14c1-6 4-18 2-23l-3-1q-6 3-10 10m1-14-1 3c7-1 16-16 22-2v3q6-8 1-14c-8-6-18 6-22 10m-210 9q-5-6-2-14-6-1-11 4 4 7 13 10"/>
      <path d="M288 259c12 2 11 8 16 10-5 5-6 6-14 4q-5-5-2-14m407 446 8-4c0 20 0 47-3 67h-7c0-8 4-58 2-63"/>
    </g>
    <path fill="#aaa5d3" d="M360 291c-3-3-9-3-10-8-1-4 3-8 4-13v-5c4-4 15-5 20-5 20-2 35-4 50 12-15-3-27-10-43-4l16 7c5 3 15 9 14 15-4 4-10-3-13-6-2 9-8 17-17 8q-3-5-2-12c-8 2-15 10-19 11"/>
    <path fill="#2b2e58" d="M360 291c3-16 24-17 37-16 5 3 15 9 14 15-4 4-10-3-13-6-2 9-8 17-17 8q-3-5-2-12c-8 2-15 10-19 11"/>
    <path fill="#aaa5d3" d="M350 337q12 14 23 30c7 9 25 11 19 25l-1 1c-6-10-5-13-17-18-8-4-16-15-20-23q1-3-2-5zm4-264q13-11 27-14 38-8 74 9 14 3 28 9c8 4 12 14 18 18 18 15 29 21 35 45l-13-17 12 22c10 27 12 66-2 93l1-13-9 25c-6-3-8-2-15-1q3-12 2-26c-1 7-12 37-11 41l-1 3c-2 2-10 22-10 25-2 1-7 12-8 14-4 11-9 16-16 24q9-26 2-54c-18-5-24-10-36-25-38-11-79-20-111-43q-14-9-26-22c-3 11-15 46-5 55 7 6 10 4 16 16-18-5-22-16-40-15q5-39 17-77c18 25 62 53 90 65-24-17-34-24-49-49 2 10 4 15 10 23-28-21-47-26-54-63-3-13 8-24 16-33 17-18 33-27 56-35z"/>
    <path fill="#2c2f52" d="M354 73q2 9 6 17c9 9 23 13 34 20 16 9 27 16 45 23l22 8c-35 1-65-31-99-37-13-3-21-2-34-1 13-7 22-6 36-5-7-7-14-13-12-25zm96 38c13 3 29 15 37 27q16 27 10 58l-1 1-1-6c-4-38-18-55-45-80m-18 48c18 3 36 50 44 64l18 20c-25-5-34-42-44-61q-7-12-18-23m-101-2 9 12c17 27 46 45 74 60-7-1-24-9-31-13-24-15-44-31-52-59"/>
    <g fill="#2c2f52">
      <path d="M309 130c6-1 18 0 24 1q14 3 26 9c21 10 58 38 71 57l-26-21c-40-28-70-47-120-38 10-5 15-7 25-8"/>
      <path d="M429 196c6 5 11 23 16 31q12 17 27 32l-10-6a81 81 0 0 1-33-57"/>
    </g>
    <path fill="#2c2f52" d="M493 141c16 5 15 25 12 38l-1 1-1-6q-1-17-10-33"/>
    <path fill="#aaa5d3" d="m271 260 7 3q4 7 13 10c8 2 9 1 14-4 16 23-5 31 2 44l-7 16c-5 10-9 23 5 30q8 3 17-1l4-2c12 4 22 8 26-9q2 2 2 5c-9 20-18 8-34 12l-6 17 8 6c17-5 26 2 43 2 4 0 13-5 16-2q-1 5-6 5c-12 7-18 12-31 17l-6 4c-8 3-21 8-23 16-5 14 8 22 18 28l-2-1c-25-4-29-28-35-49l-5-16-22-55c-12-29-3-48 2-76m68 143q8-1 14-6h-1c-4 0-12 0-14 3z"/>
    <path fill="#2f314a" d="m375 392-16 1q-19 2-38 0c-4 0-20-8-21-12l1-1 13 1 8 6c17-5 26 2 43 2 4 0 13-5 16-2q-1 5-6 5m-55-28q-11 2-19-3c-4-1-9-10-11-11-9-4 3-21 10-21-5 10-9 23 5 30q8 3 17-1l4-2c12 4 22 8 26-9q2 2 2 5c-9 20-18 8-34 12m18 49c-4-2-22 1-23-7l1-1 10 2c7 1 12-1 18 2z"/>
    <path fill="#aaa5d3" d="M64 643c22 22 33 34 61 48-11 32-17 42-14 77H39c4-38 18-86 25-125m503 98 37-5a55 55 0 0 0-22 32h-20z"/>
    <path fill="#2b2e58" d="M522 265v3q2 3 1 6t-3 2l-3-3q-1-6 5-8"/>
    <path fill="#aaa5d3" d="m272 490 5 3c12 8 24 17 38 18l18 1h1c-18 7-48-6-57 18-14 39-21 80-7 120-31-30-9-123 2-160m50 192 11-11c5-5 14-22 19-24h1c1 2-8 34-9 39z"/>
  </g>
</svg>
