<svg width="28" height="19" viewBox="0 0 28 19" xmlns="http://www.w3.org/2000/svg"><path d="M2 .794c-1.108 0-2 .89-2 1.994v13.96c0 1.105.892 1.995 2 1.995h24c1.108 0 2-.89 2-1.994V2.789a1.993 1.993 0 00-2-1.995H2zm1.5 3.314a.68.68 0 01.531.176l8.99 8.092a1.422 1.422 0 001.937 0l9.01-8.092a.695.695 0 01.943.047.69.69 0 01-.046.94L19.77 9.85l5.083 4.394c.266.228.3.678.07.942a.696.696 0 01-.945.066l-5.208-4.508-2.917 2.628a2.797 2.797 0 01-3.729-.01l-2.906-2.618-5.198 4.508a.696.696 0 01-.945-.066.691.691 0 01.07-.942l5.073-4.393L3.135 5.27a.68.68 0 01-.2-.7.682.682 0 01.565-.463z"/></svg>