<svg width="28" height="23" viewBox="0 0 28 23" xmlns="http://www.w3.org/2000/svg"><path d="M25.725 5.717c.228-.548.963-2.722-.227-5.667 0 0-1.838-.565-6.02 2.226-1.75-.48-3.623-.548-5.478-.548-1.855 0-3.727.068-5.477.548C4.34-.532 2.503.05 2.503.05c-1.19 2.945-.455 5.12-.228 5.667C.858 7.207 0 9.124 0 11.453c0 8.817 5.828 10.803 13.965 10.803C22.103 22.256 28 20.27 28 11.453c0-2.329-.857-4.246-2.275-5.736zM14 20.58c-5.775 0-10.465-.257-10.465-5.736 0-1.301.665-2.534 1.785-3.544 1.873-1.678 5.075-.788 8.68-.788 3.623 0 6.79-.89 8.68.788 1.138 1.01 1.785 2.226 1.785 3.544 0 5.462-4.69 5.736-10.465 5.736zM9.608 12c-1.155 0-2.1 1.37-2.1 3.047 0 1.678.945 3.065 2.1 3.065 1.155 0 2.1-1.37 2.1-3.065 0-1.695-.945-3.047-2.1-3.047zm8.785 0c-1.155 0-2.1 1.352-2.1 3.047s.945 3.065 2.1 3.065c1.155 0 2.1-1.37 2.1-3.065 0-1.695-.928-3.047-2.1-3.047z"/></svg>