<svg xmlns="http://www.w3.org/2000/svg" style="display: none;">
  <symbol id="icon-edu" role="img" aria-hidden="true" viewBox="0 0 100 100">
    <path d="M95 35L55 23H44L4 35c-3 1-3 2 0 3l40 12h11l40-12c3-1 3-2 0-3zM20 50v21s6 7 30 7c23 0 29-7 29-7V50l-29 9-30-9zM8 61V44l-3-1v18l-2 4v6h8v-6l-3-4z" />
  </symbol>
  <symbol id="icon-community" role="img" aria-hidden="true" viewBox="0 0 100 100">
    <path d="M90 43c-3 0-6 2-7 5H72l-2 2 2 2h11c1 3 4 6 7 6 4 0 8-4 8-8s-4-7-8-7zM66 36h1l8-8c3 2 6 2 9-1s3-8 0-11c-3-2-8-2-11 0-2 3-3 7-1 9l-8 8v3h2zM48 17v11l2 2 2-2V17c3-1 6-4 6-7 0-4-4-7-8-7s-7 3-7 7 2 6 5 7zM25 28l8 8h3v-3l-8-8c2-2 1-6-1-9-3-2-8-2-11 0-3 3-3 8 0 11s7 3 9 1zM17 52h11l2-2-2-2H17c-1-3-4-5-7-5-4 0-7 3-7 7s3 8 7 8 6-3 7-6zM33 64l-8 8c-2-2-6-1-8 1-3 3-3 8 0 11 2 3 7 3 10 0s3-7 1-9l8-8v-3h-3zM52 83V72l-2-2-2 2v11c-3 1-5 4-5 7 0 4 3 8 7 8s8-4 8-8c0-3-3-6-6-7zM75 72l-8-8h-3v3l8 8c-2 2-2 6 1 9 3 2 8 2 11 0 2-3 2-8 0-11-3-2-7-3-9-1zM50 34a16 16 0 100 32 16 16 0 000-32zm7 17l-6 6h-1l-6-6c-2-1-2-3-1-5 2-2 4-2 6-1l1 1 1-1h5c2 1 2 4 1 6z" />
  </symbol>
  <symbol id="icon-honors" role="img" aria-hidden="true" viewBox="0 0 100 100">
    <g>
      <path d="M20 41c-5-3-9-7-9-10 0-6 4-11 9-12v-8C11 13 4 21 4 31s12 17 17 19l-1-9zM80 11v8c5 1 8 6 8 12 0 3-4 7-8 10l-1 9c4-2 16-9 16-19s-6-18-15-20zM54 79v-7a30 30 0 01-9 0v7l5-1 4 1zM22 41c0 16 12 29 28 29 15 0 27-13 27-29V3H22v38zM50 81c-11 0-20 8-20 17h40c0-9-9-17-20-17z" />
    </g>
  </symbol>
  <symbol id="icon-talks" role="img" aria-hidden="true" viewBox="0 0 100 100">
    <path d="M9 79h26l15 19 14-19h26c1 0 2-1 2-3V5l-2-2H9L7 5v71c0 2 1 3 2 3zm54-43h9v10h-9V36zm-18 0h9v10h-9V36zm-18 0h10v10H27V36z" />
  </symbol>
  <symbol id="icon-work" role="img" aria-hidden="true" fill-rule="evenodd" clip-rule="evenodd" image-rendering="optimizeQuality" shape-rendering="geometricPrecision" text-rendering="geometricPrecision" viewBox="0 0 100 100">
    <defs />
    <path d="M47 2h6v7h-6zM25 21l-6-6 4-5 6 6zM10 39h7v6h-7zM83 39h7v6h-7zM76 22l-5-5 6-5 5 4zM50 97c6 0 10-5 10-10v-2H40v2c0 5 4 10 10 10zM23 40c0 8 3 16 9 22 3 2 5 6 5 11v3h-6v6h38v-6h-6v-3c0-5 2-9 5-11 5-5 9-12 9-20a27 27 0 00-54-2zm27 10l10-11 5 5-12 11v21h-6V55L35 44l5-5 10 11z" />
  </symbol>
  <symbol id="icon-skills" role="img" aria-hidden="true" fill-rule="evenodd" clip-rule="evenodd" image-rendering="optimizeQuality" shape-rendering="geometricPrecision" text-rendering="geometricPrecision" viewBox="0 0 100 100">
    <path d="M2 3h95v11H49l-8 10H2V3zm50 70h25v11H52V73zM29 42l22 22-22 23-7-7 14-16-14-15 7-7zM25 9h8v9h-8V9zM9 9h9v9H9V9zm88 11v78H2V30h42l8-10h45z" />
  </symbol>
</svg>
