<svg xmlns="http://www.w3.org/2000/svg" role="img" aria-hidden="true" data-name="Layer 1" viewBox="0 0 5 6.25"><path d="M.761 1.331a.185.185 0 00.073.166.615.615 0 00.12.078c.064.035.128.07.196.1a4.517 4.517 0 00.447.166l.11.034a1.922 1.922 0 00-.224-.014l-.004-.002a.553.553 0 00-.36-.056l-.008.002c.01 0 .006.001-.013.002l-.02.005a.425.425 0 00-.05.018.24.24 0 00-.08.06.198.198 0 00-.05.128.434.434 0 00-.101.116.396.396 0 00-.013.359.762.762 0 00.051.094.908.908 0 00.065.088 1.145 1.145 0 00.162.158 2.104 2.104 0 00.377.235q.107.055.218.102l-.015.008a.28.28 0 00-.135.266.265.265 0 00.162.195.826.826 0 00.277.073.942.942 0 00.243.001 1.246 1.246 0 00.32-.093.739.739 0 00.244-.163 1.095 1.095 0 00.176-.002.595.595 0 00.333-.133.213.213 0 00.017-.336q-.018-.019-.037-.036a.624.624 0 00.017-.175.89.89 0 00-.105-.363 1.5 1.5 0 00-.108-.181c.208.084.41.182.615.27a2.513 2.513 0 00.407.146c.044.01.088.024.132.036.052.013.138.016.164-.062a.077.077 0 00-.016-.09 1.388 1.388 0 00-.413-.224 6.196 6.196 0 00-.455-.142 28.075 28.075 0 00-.521-.137L2.869 2a1.841 1.841 0 00-.225-.22 2.935 2.935 0 00-.79-.465 2.235 2.235 0 00-.717-.157.528.528 0 00-.28.042.184.184 0 00-.096.131zm.387.807l-.001-.002a.533.533 0 01-.06-.077.928.928 0 01.06-.02A.955.955 0 011.34 2l.082-.004a.533.533 0 01.039.025.53.53 0 01.05.04l.017.016.023.028a.395.395 0 01.07.133 1.081 1.081 0 01.048.221 2.074 2.074 0 01-.237-.115 1.634 1.634 0 01-.184-.123 1.31 1.31 0 01-.073-.06l-.017-.016zm.647.371c0-.061.003-.122-.002-.183a.596.596 0 00-.05-.2.52.52 0 00-.07-.114l.064.008q.085.013.17.031a.257.257 0 00.049.143 1.142 1.142 0 00.092.128 1.086 1.086 0 00.143.14 1.11 1.11 0 00-.218-.041.09.09 0 00-.073.037.094.094 0 00-.017.08v.001l-.048-.016zm1.041-.038l.015.014.015.017a.427.427 0 01.037.05l.011.019.007.018.004.018v.012l-.002.003-.004.005-.011.01-.01.007-.022.01-.021.01c.014-.006-.01.002-.011.003a.398.398 0 01-.04.008 3.056 3.056 0 00-.303-.203 1.474 1.474 0 01-.332-.261 1.002 1.002 0 01-.087-.118 2.363 2.363 0 01.481.186 1.231 1.231 0 01.273.192zm-.16.376l.053-.003.015.014a.78.78 0 01.132.153.811.811 0 01.026.042l.01.02a.606.606 0 01-.17-.041 1.198 1.198 0 01-.196-.085 1.447 1.447 0 01-.17-.117 1.846 1.846 0 00.3.017zm.138-.607l-.006-.005a1.732 1.732 0 00-.214-.12l.147.036q.038.043.073.089zm-1.328.642a2.359 2.359 0 01-.176-.102 1.548 1.548 0 01-.173-.13 1.177 1.177 0 01-.074-.07l-.011-.012-.015-.016A.884.884 0 011 2.506a.765.765 0 01-.056-.082l-.01-.016-.006-.014a.424.424 0 01-.017-.042.216.216 0 01-.008-.134l.002-.007.007-.017.006-.012c-.002.005.005-.008.007-.01l.012-.017.013.022a.566.566 0 00.074.095 1.279 1.279 0 00.328.236 2.895 2.895 0 00.685.254l.053.05a2.308 2.308 0 00.335.263 1.266 1.266 0 00.233.112l-.02.001-.053.002c-.037 0-.075 0-.112-.003a1.78 1.78 0 01-.213-.025l-.006-.001-.006-.001-.025-.005-.05-.011a2.286 2.286 0 01-.307-.094 3.376 3.376 0 01-.379-.168zm.922.663a1.122 1.122 0 01-.173.048.842.842 0 01-.061.01h-.012l-.03.002a1.09 1.09 0 01-.256-.023.72.72 0 01-.133-.042.24.24 0 01-.046-.024.276.276 0 01-.044-.035l-.006-.007-.008-.01-.013-.02c.004.006-.005-.014-.006-.018l-.002-.01-.001-.01v-.019a.218.218 0 01.006-.03v-.003l.002-.004.007-.016.007-.012.007-.01.007-.01c-.004.006.005-.004.007-.005l.012-.01.002-.002h.002a.233.233 0 01.028-.015l.01-.004.017-.005a.364.364 0 01.033-.007l.017-.002.012-.002a.622.622 0 01.07 0 2.506 2.506 0 00.377.096q.05.008.101.014a1.8 1.8 0 00.208.066q.035.009.071.015a.93.93 0 01-.212.104zM3.2 3.1a.249.249 0 01.02.032l.003.006.006.016v.004l.001.015v.005l-.003.008-.004.01v.002L3.22 3.2l-.013.016-.005.005a.328.328 0 01-.04.031l-.013.008-.02.012a.509.509 0 01-.042.019.501.501 0 01-.087.025.7.7 0 01-.15.014.636.636 0 00.245-.132.466.466 0 00.093-.114zm-.12-.327a.66.66 0 01.004.042v.02a1.784 1.784 0 00-.112-.061.249.249 0 00.074-.074l.013-.025a.812.812 0 01.017.066l.002.011zM.993 1.321l.025-.002h.033a1.113 1.113 0 01.171.01 2.298 2.298 0 01.802.262 2.96 2.96 0 01.373.239q.041.031.08.064a1.22 1.22 0 00-.115-.023 14.67 14.67 0 01-.74-.222 4.267 4.267 0 01-.444-.168c-.055-.025-.108-.052-.161-.079l-.008-.004-.01-.005-.032-.02a.28.28 0 01-.028-.021L.93 1.345l-.007-.01.005-.001.006-.002a.349.349 0 01.058-.011z"/></svg>
