<svg xmlns="http://www.w3.org/2000/svg" role="img" width="28" height="23" viewBox="0 0 28 23"><title>Twitter</title><path d="M27.995 10.348c-.062-.335-1.312-.366-3.218-.152-.25-3.082-1.843-6.042-4.593-8.025C15.123-1.49 8.03-.423 4.312 4.521a10.799 10.799 0 00-1.718 9.733A14.68 14.68 0 010 10.624a11.951 11.951 0 005.062 9.855c5.53 3.966 13.31 2.807 17.372-2.594.03-.06.062-.091.093-.152l.094-.092c1.312-1.74 2-3.723 2.156-5.706 2.062-.671 3.312-1.25 3.218-1.587zm-8.56-.396c-1.126 0-2.063-.916-2.063-2.014 0-1.099.937-2.014 2.062-2.014 1.125 0 2.062.915 2.062 2.014 0 1.098-.906 2.014-2.062 2.014z"/></svg>
