<svg width="998" height="244" viewBox="0 0 998 244" fill="none" xmlns="http://www.w3.org/2000/svg">
<mask id="mask0" mask-type="alpha" maskUnits="userSpaceOnUse" x="0" y="0" width="238" height="238">
<path fill-rule="evenodd" clip-rule="evenodd" d="M0 0H237.302V237.357H0V0Z" fill="white"/>
</mask>
<g mask="url(#mask0)">
<path fill-rule="evenodd" clip-rule="evenodd" d="M118.613 228.127C58.1661 228.127 9.1644 179.125 9.1644 118.679C9.1644 58.2322 58.1661 9.23056 118.613 9.23056C179.059 9.23056 228.061 58.2322 228.061 118.679C228.061 143.177 220.01 165.794 206.413 184.032L212.18 191.687C227.912 171.552 237.291 146.212 237.291 118.679C237.291 53.1344 184.157 0 118.613 0C53.0682 0 -0.0661621 53.1344 -0.0661621 118.679C-0.0661621 184.223 53.0682 237.357 118.613 237.357C132.337 237.357 145.514 235.019 157.776 230.734L151.919 222.959C141.416 226.311 130.227 228.127 118.613 228.127Z" fill="#01385E"/>
</g>
<path fill-rule="evenodd" clip-rule="evenodd" d="M49.2613 101.78C48.9865 100.498 48.5433 99.323 47.9334 98.2543C47.3226 97.1875 46.5434 96.3011 45.5983 95.5987C44.6515 94.8982 43.5068 94.5456 42.1643 94.5456C38.9886 94.5456 36.6993 96.3176 35.2964 99.8569C33.8916 103.398 33.1902 109.259 33.1902 117.439C33.1902 121.347 33.312 124.888 33.5565 128.061C33.7991 131.236 34.2433 133.939 34.8843 136.166C35.5253 138.395 36.441 140.103 37.6315 141.294C38.8219 142.484 40.3622 143.079 42.2559 143.079C43.0489 143.079 43.918 142.867 44.8657 142.438C45.8108 142.012 46.6972 141.372 47.5214 140.515C48.3455 139.662 49.0323 138.578 49.5818 137.264C50.1312 135.952 50.4059 134.411 50.4059 132.64V125.955H41.7065V116.248H63.043V151.504H53.3363V145.46H53.1531C51.5652 148.024 49.6578 149.842 47.4298 150.909C45.2009 151.977 42.5306 152.511 39.4171 152.511C35.3879 152.511 32.106 151.809 29.573 150.405C27.0383 149.001 25.0548 146.834 23.6208 143.903C22.1858 140.973 21.2243 137.356 20.7362 133.052C20.2472 128.748 20.0037 123.757 20.0037 118.08C20.0037 112.586 20.3544 107.764 21.0568 103.611C21.7582 99.4603 22.9633 95.9961 24.6739 93.2178C26.3826 90.4413 28.6408 88.3498 31.4503 86.945C34.257 85.5412 37.7688 84.8389 41.9812 84.8389C49.1834 84.8389 54.3738 86.6245 57.5486 90.1959C60.7225 93.7672 62.3104 98.8807 62.3104 105.534H49.6733C49.6733 104.314 49.536 103.062 49.2613 101.78Z" fill="#01385E"/>
<path fill-rule="evenodd" clip-rule="evenodd" d="M98.8519 126.824L92.5334 97.4293H92.3502L86.0308 126.824H98.8519ZM100.587 86.0658L117.894 151.449H104.158L101.136 137.621H83.7367L80.7157 151.449H66.9797L84.287 86.0658H100.587Z" fill="#01385E"/>
<path fill-rule="evenodd" clip-rule="evenodd" d="M149.767 126.824L143.448 97.4293H143.265L136.947 126.824H149.767ZM151.511 86.0658L168.818 151.449H155.082L152.061 137.621H134.662L131.64 151.449H117.904L135.211 86.0658H151.511Z" fill="#01385E"/>
<path fill-rule="evenodd" clip-rule="evenodd" d="M193.098 141.774C195.418 141.774 197.279 141.377 198.684 140.583C200.088 139.791 201.202 138.477 202.027 136.645C202.851 134.814 203.4 132.403 203.675 129.411C203.95 126.42 204.087 122.697 204.087 118.239C204.087 114.516 203.964 111.25 203.721 108.441C203.476 105.634 202.973 103.298 202.21 101.436C201.446 99.5748 200.317 98.1701 198.822 97.2232C197.325 96.2773 195.326 95.8038 192.824 95.8038H187.238V141.774H193.098ZM195.632 86.0626C200.211 86.0626 203.904 86.8108 206.712 88.3062C209.52 89.8034 211.703 91.9389 213.26 94.7163C214.817 97.4946 215.87 100.838 216.419 104.744C216.969 108.651 217.243 113.016 217.243 117.838C217.243 123.578 216.892 128.568 216.19 132.811C215.488 137.054 214.282 140.549 212.573 143.296C210.863 146.043 208.574 148.089 205.705 149.431C202.835 150.775 199.203 151.446 194.808 151.446H174.021V86.0626H195.632Z" fill="#01385E"/>
<path fill-rule="evenodd" clip-rule="evenodd" d="M206.821 212.314L202.831 207.016L210.133 201.515L214.123 206.812L206.821 212.314ZM181.969 231.039L177.979 225.741L200.214 208.991L204.203 214.288L181.969 231.039ZM172.029 238.595L168.04 233.297L175.579 227.618L179.569 232.914L172.029 238.595ZM162.648 225.677L167.945 221.686L171.935 226.983L166.639 230.973L162.648 225.677ZM157.14 218.383L162.437 214.392L166.427 219.689L161.13 223.68L157.14 218.383ZM151.657 211.025L156.955 207.034L160.944 212.331L155.648 216.321L151.657 211.025ZM164.265 201.515L168.255 206.812L162.958 210.803L158.968 205.506L164.265 201.515ZM171.601 196.088L175.59 201.384L170.294 205.375L166.303 200.078L171.601 196.088ZM178.937 190.582L182.927 195.878L177.63 199.869L173.639 194.573L178.937 190.582ZM186.239 185.065L190.229 190.361L184.932 194.352L180.941 189.055L186.239 185.065ZM193.582 179.518L197.572 184.815L192.276 188.805L188.285 183.509L193.582 179.518ZM203.047 192.186L197.75 196.176L193.759 190.88L199.057 186.889L203.047 192.186ZM191.931 203.699L197.229 199.708L201.219 205.004L195.922 208.995L191.931 203.699ZM184.621 209.172L189.918 205.181L193.908 210.478L188.612 214.468L184.621 209.172ZM177.302 214.717L182.6 210.727L186.589 216.023L181.293 220.014L177.302 214.717ZM175.256 216.213L179.246 221.509L173.95 225.5L169.959 220.203L175.256 216.213ZM173.772 214.197L168.475 218.187L164.484 212.891L169.782 208.9L173.772 214.197ZM181.082 208.637L175.785 212.628L171.795 207.332L177.092 203.341L181.082 208.637ZM186.465 196.399L191.763 192.409L195.753 197.705L190.456 201.696L186.465 196.399ZM188.409 203.192L183.113 207.183L179.122 201.886L184.419 197.896L188.409 203.192ZM208.563 199.544L203.267 203.535L199.276 198.238L204.573 194.247L208.563 199.544ZM218.863 200.359L201.152 176.85C198.728 173.632 194.111 172.983 190.893 175.407L149.123 206.875C145.906 209.299 145.255 213.916 147.68 217.134L165.39 240.642C167.815 243.86 172.432 244.511 175.65 242.086L217.42 210.618C220.637 208.194 221.287 203.576 218.863 200.359Z" fill="#01385E"/>
<path d="M311.246 75.5965H330.244V102.517C327.27 103.491 324.27 104.209 321.245 104.67C318.22 105.132 314.784 105.362 310.938 105.362C305.247 105.362 300.452 104.234 296.555 101.978C292.658 99.6707 289.684 96.4147 287.633 92.21C285.634 87.9541 284.634 82.929 284.634 77.1348C284.634 71.4431 285.736 66.4949 287.941 62.2903C290.197 58.0343 293.453 54.7526 297.709 52.4452C301.965 50.0865 307.093 48.9071 313.092 48.9071C316.169 48.9071 319.066 49.1891 321.783 49.7532C324.552 50.3172 327.116 51.112 329.475 52.1375L326.86 58.1369C324.911 57.3165 322.706 56.5986 320.245 55.9833C317.835 55.3167 315.323 54.9834 312.707 54.9834C306.144 54.9834 301.016 56.9832 297.325 60.9827C293.684 64.931 291.864 70.315 291.864 77.1348C291.864 81.4933 292.556 85.3646 293.94 88.7489C295.376 92.0818 297.607 94.6969 300.632 96.5941C303.657 98.4401 307.631 99.3631 312.554 99.3631C314.964 99.3631 317.015 99.2349 318.707 98.9785C320.399 98.7221 321.937 98.4145 323.322 98.0555V81.7496H311.246V75.5965ZM349.206 104.593H342.438V46.1382H349.206V104.593ZM398.11 83.9032C398.11 90.723 396.366 96.0045 392.879 99.7476C389.444 103.491 384.778 105.362 378.881 105.362C375.24 105.362 371.984 104.542 369.113 102.901C366.293 101.209 364.062 98.7734 362.421 95.5943C360.78 92.3638 359.96 88.4668 359.96 83.9032C359.96 77.0835 361.652 71.8277 365.036 68.1358C368.472 64.4439 373.164 62.5979 379.112 62.5979C382.804 62.5979 386.085 63.444 388.957 65.1361C391.828 66.7769 394.059 69.1869 395.648 72.3661C397.289 75.4939 398.11 79.3396 398.11 83.9032ZM366.959 83.9032C366.959 88.7745 367.908 92.6459 369.805 95.5173C371.754 98.3375 374.83 99.7476 379.035 99.7476C383.188 99.7476 386.239 98.3375 388.188 95.5173C390.136 92.6459 391.11 88.7745 391.11 83.9032C391.11 79.032 390.136 75.2119 388.188 72.443C386.239 69.6741 383.163 68.2896 378.958 68.2896C374.753 68.2896 371.702 69.6741 369.805 72.443C367.908 75.2119 366.959 79.032 366.959 83.9032ZM415.605 46.1382V60.3674C415.605 62.1108 415.554 63.7516 415.452 65.2899C415.4 66.7769 415.323 67.9563 415.221 68.828H415.605C416.785 67.0846 418.4 65.6232 420.451 64.4439C422.502 63.2645 425.143 62.6748 428.373 62.6748C433.501 62.6748 437.603 64.4695 440.679 68.0588C443.807 71.5969 445.371 76.904 445.371 83.9802C445.371 91.0563 443.807 96.389 440.679 99.9784C437.552 103.568 433.45 105.362 428.373 105.362C425.143 105.362 422.502 104.773 420.451 103.593C418.4 102.414 416.785 101.004 415.605 99.3631H415.067L413.682 104.593H408.837V46.1382H415.605ZM427.219 68.2896C422.81 68.2896 419.759 69.5459 418.067 72.0584C416.426 74.5709 415.605 78.468 415.605 83.7494V84.0571C415.605 89.1334 416.426 93.0304 418.067 95.7481C419.759 98.4145 422.861 99.7476 427.373 99.7476C431.065 99.7476 433.808 98.3888 435.603 95.6712C437.449 92.9535 438.372 89.0309 438.372 83.9032C438.372 73.4941 434.655 68.2896 427.219 68.2896ZM471.771 62.6748C476.796 62.6748 480.514 63.7773 482.924 65.9822C485.334 68.187 486.539 71.6995 486.539 76.5194V104.593H481.616L480.309 98.7478H480.001C478.206 101.004 476.309 102.67 474.309 103.747C472.309 104.824 469.592 105.362 466.156 105.362C462.413 105.362 459.311 104.388 456.85 102.44C454.388 100.44 453.158 97.3377 453.158 93.133C453.158 89.0309 454.773 85.8774 458.003 83.6725C461.234 81.4163 466.208 80.1857 472.925 79.9806L479.924 79.7499V77.2886C479.924 73.8531 479.18 71.4687 477.693 70.1355C476.206 68.8024 474.104 68.1358 471.386 68.1358C469.233 68.1358 467.182 68.4691 465.233 69.1357C463.285 69.751 461.464 70.4688 459.772 71.2893L457.696 66.2129C459.49 65.2386 461.618 64.4182 464.08 63.7516C466.541 63.0338 469.105 62.6748 471.771 62.6748ZM479.847 84.4416L473.771 84.6724C468.643 84.8775 465.079 85.6979 463.08 87.1337C461.131 88.5694 460.157 90.5948 460.157 93.2099C460.157 95.5173 460.849 97.2095 462.234 98.2863C463.669 99.3631 465.49 99.9015 467.695 99.9015C471.13 99.9015 474.002 98.9529 476.309 97.0556C478.668 95.1071 479.847 92.1331 479.847 88.1335V84.4416ZM506.04 104.593H499.272V46.1382H506.04V104.593ZM574.462 104.593L567.847 87.5951H546.08L539.542 104.593H532.543L554.002 49.4455H560.232L581.615 104.593H574.462ZM565.77 81.442L559.617 64.8284C559.463 64.4182 559.207 63.6747 558.848 62.5979C558.489 61.5211 558.13 60.4187 557.771 59.2906C557.463 58.1112 557.207 57.2139 557.002 56.5986C556.592 58.1881 556.156 59.7521 555.694 61.2904C555.284 62.7774 554.925 63.9567 554.618 64.8284L548.388 81.442H565.77ZM604.741 105.362C601.049 105.362 597.793 104.619 594.972 103.132C592.152 101.645 589.922 99.3374 588.281 96.2096C586.691 93.0817 585.897 89.0822 585.897 84.2109C585.897 79.1345 586.717 75.0068 588.358 71.8277C590.05 68.6485 592.357 66.3155 595.28 64.8284C598.203 63.3414 601.51 62.5979 605.202 62.5979C607.253 62.5979 609.253 62.8287 611.201 63.2901C613.201 63.7004 614.816 64.2131 616.047 64.8284L613.97 70.4432C612.74 69.9817 611.304 69.5459 609.663 69.1357C608.022 68.7254 606.484 68.5203 605.048 68.5203C596.947 68.5203 592.896 73.7249 592.896 84.134C592.896 89.1078 593.87 92.9279 595.819 95.5943C597.818 98.2094 600.767 99.5169 604.664 99.5169C606.869 99.5169 608.843 99.2862 610.586 98.8247C612.33 98.3632 613.919 97.7991 615.355 97.1326V103.132C613.97 103.85 612.432 104.388 610.74 104.747C609.099 105.157 607.099 105.362 604.741 105.362ZM641.696 105.362C638.004 105.362 634.748 104.619 631.928 103.132C629.107 101.645 626.877 99.3374 625.236 96.2096C623.646 93.0817 622.852 89.0822 622.852 84.2109C622.852 79.1345 623.672 75.0068 625.313 71.8277C627.005 68.6485 629.312 66.3155 632.235 64.8284C635.158 63.3414 638.465 62.5979 642.157 62.5979C644.208 62.5979 646.208 62.8287 648.156 63.2901C650.156 63.7004 651.771 64.2131 653.002 64.8284L650.925 70.4432C649.695 69.9817 648.259 69.5459 646.618 69.1357C644.977 68.7254 643.439 68.5203 642.003 68.5203C633.902 68.5203 629.851 73.7249 629.851 84.134C629.851 89.1078 630.825 92.9279 632.774 95.5943C634.773 98.2094 637.722 99.5169 641.619 99.5169C643.824 99.5169 645.798 99.2862 647.541 98.8247C649.285 98.3632 650.874 97.7991 652.31 97.1326V103.132C650.925 103.85 649.387 104.388 647.695 104.747C646.054 105.157 644.054 105.362 641.696 105.362ZM678.035 62.5979C681.522 62.5979 684.548 63.3671 687.111 64.9054C689.675 66.4436 691.624 68.6229 692.957 71.4431C694.341 74.212 695.034 77.4681 695.034 81.2112V85.2877H666.806C666.908 89.9539 668.088 93.5176 670.344 95.9788C672.651 98.3888 675.856 99.5938 679.958 99.5938C682.573 99.5938 684.881 99.3631 686.881 98.9016C688.932 98.3888 691.034 97.671 693.188 96.748V102.67C691.085 103.593 689.009 104.26 686.957 104.67C684.906 105.132 682.471 105.362 679.651 105.362C675.702 105.362 672.241 104.568 669.267 102.978C666.293 101.388 663.96 99.0298 662.268 95.9019C660.627 92.7741 659.807 88.9027 659.807 84.2878C659.807 79.7755 660.55 75.9041 662.037 72.6737C663.575 69.4433 665.703 66.9564 668.421 65.213C671.19 63.4696 674.395 62.5979 678.035 62.5979ZM677.958 68.1358C674.728 68.1358 672.164 69.1869 670.267 71.2893C668.421 73.3403 667.319 76.2118 666.96 79.9037H687.957C687.906 76.4169 687.086 73.5967 685.496 71.4431C683.907 69.2382 681.394 68.1358 677.958 68.1358ZM732.372 93.2099C732.372 97.2095 730.885 100.235 727.911 102.286C724.937 104.337 720.937 105.362 715.912 105.362C713.041 105.362 710.554 105.132 708.451 104.67C706.4 104.209 704.58 103.568 702.991 102.747V96.5941C704.631 97.4146 706.606 98.1837 708.913 98.9016C711.272 99.5682 713.656 99.9015 716.066 99.9015C719.502 99.9015 721.988 99.3631 723.527 98.2863C725.065 97.1582 725.834 95.6712 725.834 93.8252C725.834 92.7997 725.552 91.8767 724.988 91.0563C724.424 90.2359 723.399 89.4155 721.912 88.595C720.476 87.7746 718.399 86.8516 715.681 85.8261C713.015 84.8006 710.733 83.7751 708.836 82.7495C706.939 81.724 705.477 80.4934 704.452 79.0576C703.426 77.6219 702.914 75.7759 702.914 73.5198C702.914 70.033 704.324 67.341 707.144 65.4438C710.015 63.5465 713.759 62.5979 718.373 62.5979C720.886 62.5979 723.219 62.8543 725.373 63.3671C727.578 63.8798 729.629 64.5464 731.526 65.3668L729.218 70.7509C727.475 70.033 725.655 69.4177 723.757 68.9049C721.86 68.3921 719.912 68.1358 717.912 68.1358C715.143 68.1358 713.015 68.5972 711.528 69.5202C710.092 70.3919 709.374 71.5969 709.374 73.1352C709.374 74.3146 709.708 75.2888 710.374 76.058C711.041 76.8271 712.143 77.5963 713.682 78.3654C715.271 79.1345 717.374 80.0062 719.989 80.9805C722.604 81.9547 724.834 82.9546 726.68 83.9802C728.526 85.0057 729.936 86.262 730.911 87.749C731.885 89.1847 732.372 91.005 732.372 93.2099ZM769.177 93.2099C769.177 97.2095 767.69 100.235 764.716 102.286C761.742 104.337 757.742 105.362 752.717 105.362C749.846 105.362 747.359 105.132 745.256 104.67C743.205 104.209 741.385 103.568 739.795 102.747V96.5941C741.436 97.4146 743.41 98.1837 745.718 98.9016C748.076 99.5682 750.461 99.9015 752.871 99.9015C756.306 99.9015 758.793 99.3631 760.332 98.2863C761.87 97.1582 762.639 95.6712 762.639 93.8252C762.639 92.7997 762.357 91.8767 761.793 91.0563C761.229 90.2359 760.203 89.4155 758.716 88.595C757.281 87.7746 755.204 86.8516 752.486 85.8261C749.82 84.8006 747.538 83.7751 745.641 82.7495C743.744 81.724 742.282 80.4934 741.257 79.0576C740.231 77.6219 739.718 75.7759 739.718 73.5198C739.718 70.033 741.129 67.341 743.949 65.4438C746.82 63.5465 750.563 62.5979 755.178 62.5979C757.691 62.5979 760.024 62.8543 762.177 63.3671C764.382 63.8798 766.433 64.5464 768.331 65.3668L766.023 70.7509C764.28 70.033 762.46 69.4177 760.562 68.9049C758.665 68.3921 756.717 68.1358 754.717 68.1358C751.948 68.1358 749.82 68.5972 748.333 69.5202C746.897 70.3919 746.179 71.5969 746.179 73.1352C746.179 74.3146 746.513 75.2888 747.179 76.058C747.846 76.8271 748.948 77.5963 750.486 78.3654C752.076 79.1345 754.178 80.0062 756.793 80.9805C759.409 81.9547 761.639 82.9546 763.485 83.9802C765.331 85.0057 766.741 86.262 767.715 87.749C768.69 89.1847 769.177 91.005 769.177 93.2099ZM782.6 47.9072C783.625 47.9072 784.522 48.2662 785.292 48.984C786.112 49.6506 786.522 50.7274 786.522 52.2144C786.522 53.7015 786.112 54.8039 785.292 55.5218C784.522 56.1884 783.625 56.5217 782.6 56.5217C781.471 56.5217 780.523 56.1884 779.754 55.5218C778.985 54.8039 778.6 53.7015 778.6 52.2144C778.6 50.7274 778.985 49.6506 779.754 48.984C780.523 48.2662 781.471 47.9072 782.6 47.9072ZM785.907 63.3671V104.593H779.138V63.3671H785.907ZM805.736 46.1382V60.3674C805.736 62.1108 805.685 63.7516 805.583 65.2899C805.531 66.7769 805.454 67.9563 805.352 68.828H805.736C806.916 67.0846 808.531 65.6232 810.582 64.4439C812.633 63.2645 815.274 62.6748 818.504 62.6748C823.632 62.6748 827.734 64.4695 830.811 68.0588C833.938 71.5969 835.502 76.904 835.502 83.9802C835.502 91.0563 833.938 96.389 830.811 99.9784C827.683 103.568 823.581 105.362 818.504 105.362C815.274 105.362 812.633 104.773 810.582 103.593C808.531 102.414 806.916 101.004 805.736 99.3631H805.198L803.814 104.593H798.968V46.1382H805.736ZM817.35 68.2896C812.941 68.2896 809.89 69.5459 808.198 72.0584C806.557 74.5709 805.736 78.468 805.736 83.7494V84.0571C805.736 89.1334 806.557 93.0304 808.198 95.7481C809.89 98.4145 812.992 99.7476 817.504 99.7476C821.196 99.7476 823.94 98.3888 825.734 95.6712C827.58 92.9535 828.503 89.0309 828.503 83.9032C828.503 73.4941 824.786 68.2896 817.35 68.2896ZM849.75 47.9072C850.775 47.9072 851.672 48.2662 852.442 48.984C853.262 49.6506 853.672 50.7274 853.672 52.2144C853.672 53.7015 853.262 54.8039 852.442 55.5218C851.672 56.1884 850.775 56.5217 849.75 56.5217C848.621 56.5217 847.673 56.1884 846.904 55.5218C846.135 54.8039 845.75 53.7015 845.75 52.2144C845.75 50.7274 846.135 49.6506 846.904 48.984C847.673 48.2662 848.621 47.9072 849.75 47.9072ZM853.057 63.3671V104.593H846.288V63.3671H853.057ZM872.886 104.593H866.118V46.1382H872.886V104.593ZM889.409 47.9072C890.434 47.9072 891.331 48.2662 892.101 48.984C892.921 49.6506 893.331 50.7274 893.331 52.2144C893.331 53.7015 892.921 54.8039 892.101 55.5218C891.331 56.1884 890.434 56.5217 889.409 56.5217C888.281 56.5217 887.332 56.1884 886.563 55.5218C885.794 54.8039 885.409 53.7015 885.409 52.2144C885.409 50.7274 885.794 49.6506 886.563 48.984C887.332 48.2662 888.281 47.9072 889.409 47.9072ZM892.716 63.3671V104.593H885.947V63.3671H892.716ZM919.545 99.8246C920.57 99.8246 921.621 99.7476 922.698 99.5938C923.775 99.44 924.647 99.2349 925.313 98.9785V104.132C924.595 104.491 923.57 104.773 922.237 104.978C920.904 105.234 919.622 105.362 918.391 105.362C916.237 105.362 914.238 105.003 912.392 104.286C910.597 103.516 909.136 102.209 908.008 100.363C906.879 98.517 906.315 95.9276 906.315 92.5946V68.5973H900.47V65.3668L906.392 62.6748L909.084 53.9066H913.084V63.3671H925.006V68.5973H913.084V92.4408C913.084 94.9533 913.674 96.8249 914.853 98.0555C916.084 99.2349 917.647 99.8246 919.545 99.8246ZM927.108 63.3671H934.338L943.26 86.826C944.029 88.9283 944.721 90.9025 945.336 92.7484C945.952 94.5944 946.413 96.3634 946.721 98.0555H947.028C947.336 96.7736 947.823 95.1071 948.49 93.0561C949.156 90.9537 949.849 88.8514 950.566 86.7491L958.95 63.3671H966.257L948.49 110.285C947.003 114.182 945.131 117.284 942.875 119.592C940.619 121.899 937.491 123.053 933.491 123.053C932.261 123.053 931.184 122.976 930.261 122.822C929.338 122.719 928.543 122.591 927.877 122.437V117.053C928.441 117.156 929.107 117.259 929.876 117.361C930.697 117.464 931.543 117.515 932.415 117.515C934.773 117.515 936.671 116.848 938.106 115.515C939.542 114.182 940.696 112.413 941.567 110.208L943.721 104.747L927.108 63.3671ZM321.86 190.593L315.246 173.595H293.479L286.941 190.593H279.942L301.401 135.446H307.631L329.013 190.593H321.86ZM313.169 167.442L307.016 150.828C306.862 150.418 306.606 149.675 306.247 148.598C305.888 147.521 305.529 146.419 305.17 145.291C304.862 144.111 304.606 143.214 304.401 142.599C303.991 144.188 303.555 145.752 303.093 147.29C302.683 148.777 302.324 149.957 302.016 150.828L295.786 167.442H313.169ZM369.291 190.516L362.215 167.288C361.549 165.186 360.959 163.135 360.446 161.135C359.933 159.135 359.574 157.546 359.369 156.366H359.062C358.857 157.546 358.523 159.135 358.062 161.135C357.6 163.135 357.011 165.211 356.293 167.365L348.909 190.516H341.218L329.911 149.29H336.91L342.602 171.288C343.166 173.493 343.704 175.723 344.217 177.979C344.73 180.235 345.089 182.107 345.294 183.594H345.602C345.756 182.722 345.986 181.646 346.294 180.364C346.602 179.082 346.935 177.749 347.294 176.364C347.653 174.928 348.012 173.646 348.371 172.518L355.677 149.29H363.061L370.137 172.518C370.65 174.313 371.189 176.236 371.753 178.287C372.317 180.338 372.701 182.081 372.906 183.517H373.214C373.368 182.235 373.701 180.466 374.214 178.21C374.778 175.954 375.368 173.646 375.983 171.288L381.752 149.29H388.674L377.214 190.516H369.291ZM411.681 148.675C416.707 148.675 420.424 149.777 422.834 151.982C425.244 154.187 426.449 157.699 426.449 162.519V190.593H421.527L420.219 184.748H419.911C418.117 187.004 416.219 188.67 414.22 189.747C412.22 190.824 409.502 191.362 406.067 191.362C402.324 191.362 399.221 190.388 396.76 188.44C394.299 186.44 393.068 183.338 393.068 179.133C393.068 175.031 394.683 171.877 397.914 169.673C401.144 167.416 406.118 166.186 412.835 165.981L419.834 165.75V163.289C419.834 159.853 419.091 157.469 417.604 156.136C416.117 154.802 414.015 154.136 411.297 154.136C409.143 154.136 407.092 154.469 405.144 155.136C403.195 155.751 401.375 156.469 399.683 157.289L397.606 152.213C399.401 151.239 401.529 150.418 403.99 149.752C406.451 149.034 409.015 148.675 411.681 148.675ZM419.758 170.442L413.681 170.672C408.554 170.877 404.99 171.698 402.99 173.134C401.042 174.569 400.067 176.595 400.067 179.21C400.067 181.517 400.76 183.209 402.144 184.286C403.58 185.363 405.4 185.901 407.605 185.901C411.041 185.901 413.912 184.953 416.219 183.056C418.578 181.107 419.758 178.133 419.758 174.134V170.442ZM458.411 148.598C459.18 148.598 460 148.649 460.872 148.752C461.744 148.803 462.538 148.906 463.256 149.059L462.41 155.289C461.744 155.136 461 155.007 460.18 154.905C459.359 154.802 458.616 154.751 457.949 154.751C455.847 154.751 453.873 155.341 452.027 156.52C450.181 157.648 448.694 159.263 447.566 161.366C446.489 163.417 445.951 165.827 445.951 168.596V190.593H439.182V149.367H444.72L445.489 156.905H445.797C447.079 154.649 448.771 152.7 450.873 151.059C453.027 149.418 455.539 148.598 458.411 148.598ZM485.373 148.598C488.86 148.598 491.886 149.367 494.449 150.905C497.013 152.444 498.962 154.623 500.295 157.443C501.679 160.212 502.372 163.468 502.372 167.211V171.288H474.144C474.246 175.954 475.426 179.518 477.682 181.979C479.989 184.389 483.194 185.594 487.296 185.594C489.911 185.594 492.219 185.363 494.219 184.902C496.27 184.389 498.372 183.671 500.526 182.748V188.67C498.423 189.593 496.347 190.26 494.296 190.67C492.244 191.132 489.809 191.362 486.989 191.362C483.04 191.362 479.579 190.568 476.605 188.978C473.631 187.388 471.298 185.03 469.606 181.902C467.965 178.774 467.145 174.903 467.145 170.288C467.145 165.775 467.888 161.904 469.375 158.674C470.914 155.443 473.041 152.956 475.759 151.213C478.528 149.47 481.733 148.598 485.373 148.598ZM485.297 154.136C482.066 154.136 479.502 155.187 477.605 157.289C475.759 159.34 474.657 162.212 474.298 165.904H495.295C495.244 162.417 494.424 159.597 492.834 157.443C491.245 155.238 488.732 154.136 485.297 154.136ZM532.711 148.598C537.633 148.598 541.351 149.803 543.863 152.213C546.376 154.623 547.632 158.469 547.632 163.75V190.593H540.941V164.212C540.941 157.597 537.864 154.29 531.711 154.29C527.147 154.29 523.994 155.572 522.25 158.135C520.507 160.699 519.635 164.391 519.635 169.211V190.593H512.867V149.367H518.328L519.328 154.982H519.712C521.045 152.828 522.891 151.239 525.25 150.213C527.609 149.136 530.096 148.598 532.711 148.598ZM576.334 148.598C579.821 148.598 582.846 149.367 585.41 150.905C587.974 152.444 589.922 154.623 591.255 157.443C592.64 160.212 593.332 163.468 593.332 167.211V171.288H565.104C565.207 175.954 566.386 179.518 568.642 181.979C570.95 184.389 574.155 185.594 578.257 185.594C580.872 185.594 583.179 185.363 585.179 184.902C587.23 184.389 589.332 183.671 591.486 182.748V188.67C589.384 189.593 587.307 190.26 585.256 190.67C583.205 191.132 580.769 191.362 577.949 191.362C574.001 191.362 570.54 190.568 567.566 188.978C564.592 187.388 562.259 185.03 560.566 181.902C558.926 178.774 558.105 174.903 558.105 170.288C558.105 165.775 558.849 161.904 560.336 158.674C561.874 155.443 564.002 152.956 566.72 151.213C569.489 149.47 572.693 148.598 576.334 148.598ZM576.257 154.136C573.027 154.136 570.463 155.187 568.566 157.289C566.72 159.34 565.617 162.212 565.258 165.904H586.256C586.205 162.417 585.384 159.597 583.795 157.443C582.205 155.238 579.693 154.136 576.257 154.136ZM630.67 179.21C630.67 183.209 629.183 186.235 626.209 188.286C623.235 190.337 619.236 191.362 614.211 191.362C611.339 191.362 608.852 191.132 606.75 190.67C604.699 190.209 602.879 189.568 601.289 188.747V182.594C602.93 183.415 604.904 184.184 607.211 184.902C609.57 185.568 611.955 185.901 614.365 185.901C617.8 185.901 620.287 185.363 621.825 184.286C623.364 183.158 624.133 181.671 624.133 179.825C624.133 178.8 623.851 177.877 623.287 177.056C622.723 176.236 621.697 175.415 620.21 174.595C618.774 173.775 616.698 172.852 613.98 171.826C611.314 170.801 609.032 169.775 607.135 168.75C605.237 167.724 603.776 166.493 602.75 165.058C601.725 163.622 601.212 161.776 601.212 159.52C601.212 156.033 602.622 153.341 605.442 151.444C608.314 149.547 612.057 148.598 616.672 148.598C619.185 148.598 621.518 148.854 623.671 149.367C625.876 149.88 627.927 150.546 629.824 151.367L627.517 156.751C625.774 156.033 623.953 155.418 622.056 154.905C620.159 154.392 618.21 154.136 616.211 154.136C613.442 154.136 611.314 154.597 609.827 155.52C608.391 156.392 607.673 157.597 607.673 159.135C607.673 160.315 608.006 161.289 608.673 162.058C609.339 162.827 610.442 163.596 611.98 164.365C613.57 165.135 615.672 166.006 618.287 166.98C620.902 167.955 623.133 168.955 624.979 169.98C626.825 171.006 628.235 172.262 629.209 173.749C630.183 175.185 630.67 177.005 630.67 179.21ZM667.475 179.21C667.475 183.209 665.988 186.235 663.014 188.286C660.04 190.337 656.041 191.362 651.016 191.362C648.144 191.362 645.657 191.132 643.555 190.67C641.504 190.209 639.683 189.568 638.094 188.747V182.594C639.735 183.415 641.709 184.184 644.016 184.902C646.375 185.568 648.759 185.901 651.169 185.901C654.605 185.901 657.092 185.363 658.63 184.286C660.168 183.158 660.938 181.671 660.938 179.825C660.938 178.8 660.655 177.877 660.091 177.056C659.527 176.236 658.502 175.415 657.015 174.595C655.579 173.775 653.502 172.852 650.785 171.826C648.118 170.801 645.837 169.775 643.939 168.75C642.042 167.724 640.581 166.493 639.555 165.058C638.53 163.622 638.017 161.776 638.017 159.52C638.017 156.033 639.427 153.341 642.247 151.444C645.119 149.547 648.862 148.598 653.477 148.598C655.989 148.598 658.322 148.854 660.476 149.367C662.681 149.88 664.732 150.546 666.629 151.367L664.322 156.751C662.578 156.033 660.758 155.418 658.861 154.905C656.964 154.392 655.015 154.136 653.015 154.136C650.246 154.136 648.118 154.597 646.631 155.52C645.196 156.392 644.478 157.597 644.478 159.135C644.478 160.315 644.811 161.289 645.478 162.058C646.144 162.827 647.247 163.596 648.785 164.365C650.375 165.135 652.477 166.006 655.092 166.98C657.707 167.955 659.938 168.955 661.784 169.98C663.63 171.006 665.04 172.262 666.014 173.749C666.988 175.185 667.475 177.005 667.475 179.21ZM742.335 162.596C742.335 171.877 739.797 178.877 734.72 183.594C729.695 188.26 722.67 190.593 713.646 190.593H698.34V135.676H715.261C720.747 135.676 725.516 136.702 729.567 138.753C733.669 140.804 736.823 143.829 739.027 147.829C741.232 151.828 742.335 156.751 742.335 162.596ZM735.028 162.827C735.028 155.495 733.208 150.136 729.567 146.752C725.978 143.316 720.876 141.599 714.261 141.599H705.262V184.671H712.723C727.593 184.671 735.028 177.39 735.028 162.827ZM769.214 148.675C774.239 148.675 777.957 149.777 780.367 151.982C782.777 154.187 783.982 157.699 783.982 162.519V190.593H779.059L777.751 184.748H777.444C775.649 187.004 773.752 188.67 771.752 189.747C769.752 190.824 767.035 191.362 763.599 191.362C759.856 191.362 756.754 190.388 754.293 188.44C751.831 186.44 750.601 183.338 750.601 179.133C750.601 175.031 752.216 171.877 755.446 169.673C758.677 167.416 763.65 166.186 770.368 165.981L777.367 165.75V163.289C777.367 159.853 776.623 157.469 775.136 156.136C773.649 154.802 771.547 154.136 768.829 154.136C766.676 154.136 764.625 154.469 762.676 155.136C760.728 155.751 758.907 156.469 757.215 157.289L755.139 152.213C756.933 151.239 759.061 150.418 761.523 149.752C763.984 149.034 766.548 148.675 769.214 148.675ZM777.29 170.442L771.214 170.672C766.086 170.877 762.522 171.698 760.523 173.134C758.574 174.569 757.6 176.595 757.6 179.21C757.6 181.517 758.292 183.209 759.677 184.286C761.112 185.363 762.933 185.901 765.138 185.901C768.573 185.901 771.445 184.953 773.752 183.056C776.111 181.107 777.29 178.133 777.29 174.134V170.442ZM790.254 149.367H797.484L806.406 172.826C807.175 174.928 807.867 176.902 808.482 178.748C809.098 180.594 809.559 182.363 809.867 184.056H810.175C810.482 182.774 810.969 181.107 811.636 179.056C812.303 176.954 812.995 174.851 813.713 172.749L822.096 149.367H829.403L811.636 196.285C810.149 200.182 808.277 203.284 806.021 205.592C803.765 207.899 800.637 209.053 796.638 209.053C795.407 209.053 794.33 208.976 793.407 208.822C792.484 208.719 791.689 208.591 791.023 208.437V203.053C791.587 203.156 792.253 203.259 793.023 203.361C793.843 203.464 794.689 203.515 795.561 203.515C797.92 203.515 799.817 202.848 801.252 201.515C802.688 200.182 803.842 198.413 804.714 196.208L806.867 190.747L790.254 149.367Z" fill="#01385E"/>
</svg>
