<svg xmlns="http://www.w3.org/2000/svg" width="998" height="244" fill="none" viewBox="0 0 998 244"><mask id="GAAD-logo_svg__a" width="238" height="238" x="0" y="0" maskUnits="userSpaceOnUse"><path fill="#fff" fill-rule="evenodd" d="M0 0h237.302v237.357H0V0z" clip-rule="evenodd"/></mask><g mask="url(#GAAD-logo_svg__a)"><path fill="#01385E" fill-rule="evenodd" d="M118.613 228.127c-60.447 0-109.449-49.002-109.449-109.448 0-60.447 49.002-109.448 109.449-109.448 60.446 0 109.448 49.001 109.448 109.448 0 24.498-8.051 47.115-21.648 65.353l5.767 7.655c15.732-20.135 25.111-45.475 25.111-73.008C237.291 53.134 184.157 0 118.613 0 53.068 0-.067 53.134-.067 118.679c0 65.544 53.135 118.678 118.68 118.678 13.724 0 26.901-2.338 39.163-6.623l-5.857-7.775a109.362 109.362 0 01-33.306 5.168z" clip-rule="evenodd"/></g><path fill="#01385E" fill-rule="evenodd" d="M49.261 101.78a12.24 12.24 0 00-1.328-3.526 8.569 8.569 0 00-2.335-2.655c-.947-.7-2.091-1.053-3.434-1.053-3.175 0-5.465 1.772-6.868 5.31-1.404 3.542-2.106 9.403-2.106 17.583 0 3.908.122 7.449.367 10.622.242 3.175.686 5.878 1.327 8.105.641 2.229 1.557 3.937 2.748 5.128 1.19 1.19 2.73 1.785 4.624 1.785.793 0 1.662-.212 2.61-.641.945-.426 1.831-1.066 2.655-1.923.825-.853 1.511-1.937 2.06-3.251.55-1.312.825-2.853.825-4.624v-6.685h-8.7v-9.707h21.337v35.256h-9.707v-6.044h-.183c-1.588 2.564-3.495 4.382-5.723 5.449-2.23 1.068-4.9 1.602-8.013 1.602-4.03 0-7.311-.702-9.844-2.106-2.535-1.404-4.518-3.571-5.952-6.502-1.435-2.93-2.397-6.547-2.885-10.851-.489-4.304-.732-9.295-.732-14.972 0-5.494.35-10.316 1.053-14.469.701-4.15 1.906-7.615 3.617-10.393 1.709-2.777 3.967-4.868 6.776-6.273 2.807-1.404 6.319-2.106 10.531-2.106 7.202 0 12.393 1.785 15.568 5.357 3.173 3.571 4.761 8.685 4.761 15.338H49.673c0-1.22-.137-2.472-.412-3.754zM98.852 126.824l-6.319-29.395h-.183l-6.32 29.395h12.822zm1.735-40.758l17.307 65.383h-13.736l-3.022-13.828h-17.4l-3.02 13.828H66.98l17.307-65.383h16.3zM149.767 126.824l-6.319-29.395h-.183l-6.318 29.395h12.82zm1.744-40.758l17.307 65.383h-13.736l-3.021-13.828h-17.399l-3.022 13.828h-13.736l17.307-65.383h16.3zM193.098 141.774c2.32 0 4.181-.397 5.586-1.191 1.404-.792 2.518-2.106 3.343-3.938.824-1.831 1.373-4.242 1.648-7.234.275-2.991.412-6.714.412-11.172 0-3.723-.123-6.989-.366-9.798-.245-2.807-.748-5.143-1.511-7.005-.764-1.861-1.893-3.266-3.388-4.213-1.497-.946-3.496-1.42-5.998-1.42h-5.586v45.971h5.86zm2.534-55.711c4.579 0 8.272.748 11.08 2.243 2.808 1.497 4.991 3.633 6.548 6.41 1.557 2.779 2.61 6.122 3.159 10.028.55 3.907.824 8.272.824 13.094 0 5.74-.351 10.73-1.053 14.973s-1.908 7.738-3.617 10.485c-1.71 2.747-3.999 4.793-6.868 6.135-2.87 1.344-6.502 2.015-10.897 2.015h-20.787V86.063h21.611zM206.821 212.314l-3.99-5.298 7.302-5.501 3.99 5.297-7.302 5.502zm-24.852 18.725l-3.99-5.298 22.235-16.75 3.989 5.297-22.234 16.751zm-9.94 7.556l-3.989-5.298 7.539-5.679 3.99 5.296-7.54 5.681zm-9.381-12.918l5.297-3.991 3.99 5.297-5.296 3.99-3.991-5.296zm-5.508-7.294l5.297-3.991 3.99 5.297-5.297 3.991-3.99-5.297zm-5.483-7.358l5.298-3.991 3.989 5.297-5.296 3.99-3.991-5.296zm12.608-9.51l3.99 5.297-5.297 3.991-3.99-5.297 5.297-3.991zm7.336-5.427l3.989 5.296-5.296 3.991-3.991-5.297 5.298-3.99zm7.336-5.506l3.99 5.296-5.297 3.991-3.991-5.296 5.298-3.991zm7.302-5.517l3.99 5.296-5.297 3.991-3.991-5.297 5.298-3.99zm7.343-5.547l3.99 5.297-5.296 3.99-3.991-5.296 5.297-3.991zm9.465 12.668l-5.297 3.99-3.991-5.296 5.298-3.991 3.99 5.297zm-11.116 11.513l5.298-3.991 3.99 5.296-5.297 3.991-3.991-5.296zm-7.31 5.473l5.297-3.991 3.99 5.297-5.296 3.99-3.991-5.296zm-7.319 5.545l5.298-3.99 3.989 5.296-5.296 3.991-3.991-5.297zm-2.046 1.496l3.99 5.296-5.296 3.991-3.991-5.297 5.297-3.99zm-1.484-2.016l-5.297 3.99-3.991-5.296 5.298-3.991 3.99 5.297zm7.31-5.56l-5.297 3.991-3.99-5.296 5.297-3.991 3.99 5.296zm5.383-12.238l5.298-3.99 3.99 5.296-5.297 3.991-3.991-5.297zm1.944 6.793l-5.296 3.991-3.991-5.297 5.297-3.99 3.99 5.296zm20.154-3.648l-5.296 3.991-3.991-5.297 5.297-3.991 3.99 5.297zm10.3.815l-17.711-23.509c-2.424-3.218-7.041-3.867-10.259-1.443l-41.77 31.468c-3.217 2.424-3.868 7.041-1.443 10.259l17.71 23.508c2.425 3.218 7.042 3.869 10.26 1.444l41.77-31.468c3.217-2.424 3.867-7.042 1.443-10.259z" clip-rule="evenodd"/><path fill="#01385E" d="M311.246 75.597h18.998v26.92a55.967 55.967 0 01-8.999 2.153c-3.025.462-6.461.692-10.307.692-5.691 0-10.486-1.128-14.383-3.384-3.897-2.307-6.871-5.563-8.922-9.768-1.999-4.256-2.999-9.281-2.999-15.075 0-5.692 1.102-10.64 3.307-14.845 2.256-4.256 5.512-7.537 9.768-9.845 4.256-2.358 9.384-3.538 15.383-3.538 3.077 0 5.974.282 8.691.846 2.769.564 5.333 1.359 7.692 2.385l-2.615 5.999c-1.949-.82-4.154-1.538-6.615-2.154-2.41-.666-4.922-1-7.538-1-6.563 0-11.691 2-15.382 6-3.641 3.948-5.461 9.332-5.461 16.152 0 4.358.692 8.23 2.076 11.614 1.436 3.333 3.667 5.948 6.692 7.845 3.025 1.846 6.999 2.77 11.922 2.77 2.41 0 4.461-.13 6.153-.386a45.85 45.85 0 004.615-.922V81.75h-12.076v-6.153zm37.96 28.996h-6.768V46.138h6.768v58.455zm48.904-20.69c0 6.82-1.744 12.101-5.231 15.845-3.435 3.743-8.101 5.614-13.998 5.614-3.641 0-6.897-.82-9.768-2.461-2.82-1.692-5.051-4.128-6.692-7.307-1.641-3.23-2.461-7.127-2.461-11.69 0-6.82 1.692-12.076 5.076-15.768 3.436-3.692 8.128-5.538 14.076-5.538 3.692 0 6.973.846 9.845 2.538 2.871 1.64 5.102 4.05 6.691 7.23 1.641 3.128 2.462 6.974 2.462 11.537zm-31.151 0c0 4.871.949 8.743 2.846 11.614 1.949 2.82 5.025 4.23 9.23 4.23 4.153 0 7.204-1.41 9.153-4.23 1.948-2.871 2.922-6.742 2.922-11.614 0-4.871-.974-8.691-2.922-11.46-1.949-2.769-5.025-4.153-9.23-4.153s-7.256 1.384-9.153 4.153c-1.897 2.769-2.846 6.589-2.846 11.46zm48.646-37.765v14.23c0 1.743-.051 3.384-.153 4.922-.052 1.487-.129 2.666-.231 3.538h.384c1.18-1.743 2.795-3.205 4.846-4.384 2.051-1.18 4.692-1.77 7.922-1.77 5.128 0 9.23 1.795 12.306 5.385 3.128 3.538 4.692 8.845 4.692 15.921 0 7.076-1.564 12.409-4.692 15.998-3.127 3.59-7.229 5.384-12.306 5.384-3.23 0-5.871-.589-7.922-1.769-2.051-1.179-3.666-2.589-4.846-4.23h-.538l-1.385 5.23h-4.845V46.138h6.768zm11.614 22.152c-4.409 0-7.46 1.256-9.152 3.768-1.641 2.513-2.462 6.41-2.462 11.691v.308c0 5.076.821 8.973 2.462 11.691 1.692 2.666 4.794 4 9.306 4 3.692 0 6.435-1.36 8.23-4.077 1.846-2.718 2.769-6.64 2.769-11.768 0-10.409-3.717-15.613-11.153-15.613zm44.552-5.615c5.025 0 8.743 1.102 11.153 3.307s3.615 5.718 3.615 10.537v28.074h-4.923l-1.307-5.845h-.308c-1.795 2.256-3.692 3.922-5.692 4.999-2 1.077-4.717 1.615-8.153 1.615-3.743 0-6.845-.974-9.306-2.922-2.462-2-3.692-5.102-3.692-9.307 0-4.102 1.615-7.256 4.845-9.46 3.231-2.257 8.205-3.487 14.922-3.692l6.999-.231v-2.461c0-3.436-.744-5.82-2.231-7.154-1.487-1.333-3.589-2-6.307-2-2.153 0-4.204.334-6.153 1a40.368 40.368 0 00-5.461 2.154l-2.076-5.076c1.794-.974 3.922-1.795 6.384-2.461a27.33 27.33 0 017.691-1.077zm8.076 21.767l-6.076.23c-5.128.206-8.692 1.026-10.691 2.462-1.949 1.435-2.923 3.46-2.923 6.076 0 2.307.692 4 2.077 5.076 1.435 1.077 3.256 1.615 5.461 1.615 3.435 0 6.307-.948 8.614-2.845 2.359-1.949 3.538-4.923 3.538-8.922v-3.692zm26.193 20.151h-6.768V46.138h6.768v58.455zm68.422 0l-6.615-16.998H546.08l-6.538 16.998h-6.999l21.459-55.148h6.23l21.383 55.148h-7.153zm-8.692-23.151l-6.153-16.614c-.154-.41-.41-1.153-.769-2.23-.359-1.077-.718-2.18-1.077-3.307-.308-1.18-.564-2.077-.769-2.692-.41 1.59-.846 3.153-1.308 4.691-.41 1.487-.769 2.667-1.076 3.538l-6.23 16.614h17.382zm38.971 23.92c-3.692 0-6.948-.743-9.769-2.23-2.82-1.487-5.05-3.795-6.691-6.922-1.59-3.128-2.384-7.128-2.384-12 0-5.075.82-9.203 2.461-12.382 1.692-3.18 3.999-5.513 6.922-7 2.923-1.487 6.23-2.23 9.922-2.23 2.051 0 4.051.23 5.999.692 2 .41 3.615.923 4.846 1.538l-2.077 5.615c-1.23-.461-2.666-.897-4.307-1.307-1.641-.41-3.179-.616-4.615-.616-8.101 0-12.152 5.205-12.152 15.614 0 4.974.974 8.794 2.923 11.46 1.999 2.615 4.948 3.923 8.845 3.923 2.205 0 4.179-.23 5.922-.692 1.744-.462 3.333-1.026 4.769-1.692v5.999c-1.385.718-2.923 1.256-4.615 1.615-1.641.41-3.641.615-5.999.615zm36.955 0c-3.692 0-6.948-.743-9.768-2.23-2.821-1.487-5.051-3.795-6.692-6.922-1.59-3.128-2.384-7.128-2.384-12 0-5.075.82-9.203 2.461-12.382 1.692-3.18 3.999-5.513 6.922-7 2.923-1.487 6.23-2.23 9.922-2.23 2.051 0 4.051.23 5.999.692 2 .41 3.615.923 4.846 1.538l-2.077 5.615c-1.23-.461-2.666-.897-4.307-1.307-1.641-.41-3.179-.616-4.615-.616-8.101 0-12.152 5.205-12.152 15.614 0 4.974.974 8.794 2.923 11.46 1.999 2.615 4.948 3.923 8.845 3.923 2.205 0 4.179-.23 5.922-.692 1.744-.462 3.333-1.026 4.769-1.692v5.999c-1.385.718-2.923 1.256-4.615 1.615-1.641.41-3.641.615-5.999.615zm36.339-42.764c3.487 0 6.513.77 9.076 2.307 2.564 1.539 4.513 3.718 5.846 6.538 1.384 2.769 2.077 6.025 2.077 9.768v4.077h-28.228c.102 4.666 1.282 8.23 3.538 10.69 2.307 2.41 5.512 3.616 9.614 3.616 2.615 0 4.923-.23 6.923-.692 2.051-.513 4.153-1.231 6.307-2.154v5.922c-2.103.923-4.179 1.59-6.231 2-2.051.462-4.486.692-7.306.692-3.949 0-7.41-.794-10.384-2.384-2.974-1.59-5.307-3.948-6.999-7.076-1.641-3.128-2.461-7-2.461-11.614 0-4.513.743-8.384 2.23-11.614 1.538-3.23 3.666-5.718 6.384-7.461 2.769-1.743 5.974-2.615 9.614-2.615zm-.077 5.538c-3.23 0-5.794 1.05-7.691 3.153-1.846 2.051-2.948 4.923-3.307 8.615h20.997c-.051-3.487-.871-6.307-2.461-8.46-1.589-2.206-4.102-3.308-7.538-3.308zm54.414 25.074c0 4-1.487 7.025-4.461 9.076s-6.974 3.076-11.999 3.076c-2.871 0-5.358-.23-7.461-.692-2.051-.461-3.871-1.102-5.46-1.923v-6.153c1.64.82 3.615 1.59 5.922 2.308 2.359.666 4.743 1 7.153 1 3.436 0 5.922-.539 7.461-1.616 1.538-1.128 2.307-2.615 2.307-4.46a4.774 4.774 0 00-.846-2.77c-.564-.82-1.589-1.64-3.076-2.461-1.436-.82-3.513-1.743-6.231-2.769-2.666-1.025-4.948-2.05-6.845-3.076-1.897-1.026-3.359-2.257-4.384-3.692-1.026-1.436-1.538-3.282-1.538-5.538 0-3.487 1.41-6.179 4.23-8.076 2.871-1.898 6.615-2.846 11.229-2.846 2.513 0 4.846.256 7 .77 2.205.512 4.256 1.178 6.153 1.999l-2.308 5.384a45.45 45.45 0 00-5.461-1.846 22.297 22.297 0 00-5.845-.77c-2.769 0-4.897.462-6.384 1.385-1.436.872-2.154 2.077-2.154 3.615 0 1.18.334 2.154 1 2.923.667.77 1.769 1.538 3.308 2.307 1.589.77 3.692 1.641 6.307 2.616 2.615.974 4.845 1.974 6.691 3 1.846 1.025 3.256 2.281 4.231 3.768.974 1.436 1.461 3.256 1.461 5.46zm36.805 0c0 4-1.487 7.025-4.461 9.076s-6.974 3.076-11.999 3.076c-2.871 0-5.358-.23-7.461-.692-2.051-.461-3.871-1.102-5.461-1.923v-6.153c1.641.82 3.615 1.59 5.923 2.308 2.358.666 4.743 1 7.153 1 3.435 0 5.922-.539 7.461-1.616 1.538-1.128 2.307-2.615 2.307-4.46a4.774 4.774 0 00-.846-2.77c-.564-.82-1.59-1.64-3.077-2.461-1.435-.82-3.512-1.743-6.23-2.769-2.666-1.025-4.948-2.05-6.845-3.076-1.897-1.026-3.359-2.257-4.384-3.692-1.026-1.436-1.539-3.282-1.539-5.538 0-3.487 1.411-6.179 4.231-8.076 2.871-1.898 6.614-2.846 11.229-2.846 2.513 0 4.846.256 6.999.77 2.205.512 4.256 1.178 6.154 1.999l-2.308 5.384a45.45 45.45 0 00-5.461-1.846 22.297 22.297 0 00-5.845-.77c-2.769 0-4.897.462-6.384 1.385-1.436.872-2.154 2.077-2.154 3.615 0 1.18.334 2.154 1 2.923.667.77 1.769 1.538 3.307 2.307 1.59.77 3.692 1.641 6.307 2.616 2.616.974 4.846 1.974 6.692 3 1.846 1.025 3.256 2.281 4.23 3.768.975 1.436 1.462 3.256 1.462 5.46zM782.6 47.907c1.025 0 1.922.36 2.692 1.077.82.667 1.23 1.743 1.23 3.23 0 1.488-.41 2.59-1.23 3.308-.77.666-1.667 1-2.692 1-1.129 0-2.077-.334-2.846-1-.769-.718-1.154-1.82-1.154-3.308 0-1.487.385-2.563 1.154-3.23.769-.718 1.717-1.077 2.846-1.077zm3.307 15.46v41.226h-6.769V63.367h6.769zm19.829-17.229v14.23c0 1.743-.051 3.384-.153 4.922-.052 1.487-.129 2.666-.231 3.538h.384c1.18-1.743 2.795-3.205 4.846-4.384 2.051-1.18 4.692-1.77 7.922-1.77 5.128 0 9.23 1.795 12.307 5.385 3.127 3.538 4.691 8.845 4.691 15.921 0 7.076-1.564 12.409-4.691 15.998-3.128 3.59-7.23 5.384-12.307 5.384-3.23 0-5.871-.589-7.922-1.769-2.051-1.179-3.666-2.589-4.846-4.23h-.538l-1.384 5.23h-4.846V46.138h6.768zM817.35 68.29c-4.409 0-7.46 1.256-9.152 3.768-1.641 2.513-2.462 6.41-2.462 11.691v.308c0 5.076.821 8.973 2.462 11.691 1.692 2.666 4.794 4 9.306 4 3.692 0 6.436-1.36 8.23-4.077 1.846-2.718 2.769-6.64 2.769-11.768 0-10.409-3.717-15.613-11.153-15.613zm32.4-20.383c1.025 0 1.922.36 2.692 1.077.82.667 1.23 1.743 1.23 3.23 0 1.488-.41 2.59-1.23 3.308-.77.666-1.667 1-2.692 1-1.129 0-2.077-.334-2.846-1-.769-.718-1.154-1.82-1.154-3.308 0-1.487.385-2.563 1.154-3.23.769-.718 1.717-1.077 2.846-1.077zm3.307 15.46v41.226h-6.769V63.367h6.769zm19.829 41.226h-6.768V46.138h6.768v58.455zm16.523-56.686c1.025 0 1.922.36 2.692 1.077.82.667 1.23 1.743 1.23 3.23 0 1.488-.41 2.59-1.23 3.308-.77.666-1.667 1-2.692 1-1.128 0-2.077-.334-2.846-1-.769-.718-1.154-1.82-1.154-3.308 0-1.487.385-2.563 1.154-3.23.769-.718 1.718-1.077 2.846-1.077zm3.307 15.46v41.226h-6.769V63.367h6.769zm26.829 36.458c1.025 0 2.076-.077 3.153-.231 1.077-.154 1.949-.36 2.615-.615v5.153c-.718.359-1.743.641-3.076.846a20.392 20.392 0 01-3.846.384c-2.154 0-4.153-.359-5.999-1.076-1.795-.77-3.256-2.077-4.384-3.923-1.129-1.846-1.693-4.435-1.693-7.768V68.597h-5.845v-3.23l5.922-2.692 2.692-8.768h4v9.46h11.922v5.23h-11.922v23.844c0 2.512.59 4.384 1.769 5.614 1.231 1.18 2.794 1.77 4.692 1.77zm7.563-36.458h7.23l8.922 23.459a216.693 216.693 0 012.076 5.922 38.706 38.706 0 011.385 5.307h.307c.308-1.281.795-2.948 1.462-4.999a303.178 303.178 0 012.076-6.307l8.384-23.382h7.307l-17.767 46.918c-1.487 3.897-3.359 6.999-5.615 9.307-2.256 2.307-5.384 3.461-9.384 3.461-1.23 0-2.307-.077-3.23-.231a21.18 21.18 0 01-2.384-.385v-5.384c.564.103 1.23.206 1.999.308.821.103 1.667.154 2.539.154 2.358 0 4.256-.667 5.691-2 1.436-1.333 2.59-3.102 3.461-5.307l2.154-5.461-16.613-41.38zM321.86 190.593l-6.614-16.998h-21.767l-6.538 16.998h-6.999l21.459-55.147h6.23l21.382 55.147h-7.153zm-8.691-23.151l-6.153-16.614c-.154-.41-.41-1.153-.769-2.23a255.283 255.283 0 01-1.077-3.307c-.308-1.18-.564-2.077-.769-2.692-.41 1.589-.846 3.153-1.308 4.691-.41 1.487-.769 2.667-1.077 3.538l-6.23 16.614h17.383zm56.122 23.074l-7.076-23.228a114.941 114.941 0 01-1.769-6.153c-.513-2-.872-3.589-1.077-4.769h-.307c-.205 1.18-.539 2.769-1 4.769a68.46 68.46 0 01-1.769 6.23l-7.384 23.151h-7.691l-11.307-41.226h6.999l5.692 21.998a256.62 256.62 0 011.615 6.691c.513 2.256.872 4.128 1.077 5.615h.308c.154-.872.384-1.948.692-3.23.308-1.282.641-2.615 1-4a63.838 63.838 0 011.077-3.846l7.306-23.228h7.384l7.076 23.228a599.304 599.304 0 011.616 5.769c.564 2.051.948 3.794 1.153 5.23h.308c.154-1.282.487-3.051 1-5.307a704.258 704.258 0 011.769-6.922l5.769-21.998h6.922l-11.46 41.226h-7.923zm42.39-41.841c5.026 0 8.743 1.102 11.153 3.307s3.615 5.717 3.615 10.537v28.074h-4.922l-1.308-5.845h-.308c-1.794 2.256-3.692 3.922-5.691 4.999-2 1.077-4.718 1.615-8.153 1.615-3.743 0-6.846-.974-9.307-2.922-2.461-2-3.692-5.102-3.692-9.307 0-4.102 1.615-7.256 4.846-9.46 3.23-2.257 8.204-3.487 14.921-3.692l6.999-.231v-2.461c0-3.436-.743-5.82-2.23-7.153-1.487-1.334-3.589-2-6.307-2-2.154 0-4.205.333-6.153 1a40.341 40.341 0 00-5.461 2.153l-2.077-5.076c1.795-.974 3.923-1.795 6.384-2.461a27.322 27.322 0 017.691-1.077zm8.077 21.767l-6.077.23c-5.127.205-8.691 1.026-10.691 2.462-1.948 1.435-2.923 3.461-2.923 6.076 0 2.307.693 3.999 2.077 5.076 1.436 1.077 3.256 1.615 5.461 1.615 3.436 0 6.307-.948 8.614-2.845 2.359-1.949 3.539-4.923 3.539-8.922v-3.692zm38.653-21.844c.769 0 1.589.051 2.461.154a15.93 15.93 0 012.384.307l-.846 6.23a22.306 22.306 0 00-2.23-.384 18.055 18.055 0 00-2.231-.154c-2.102 0-4.076.59-5.922 1.769-1.846 1.128-3.333 2.743-4.461 4.846-1.077 2.051-1.615 4.461-1.615 7.23v21.997h-6.769v-41.226h5.538l.769 7.538h.308c1.282-2.256 2.974-4.205 5.076-5.846 2.154-1.641 4.666-2.461 7.538-2.461zm26.962 0c3.487 0 6.513.769 9.076 2.307 2.564 1.539 4.513 3.718 5.846 6.538 1.384 2.769 2.077 6.025 2.077 9.768v4.077h-28.228c.102 4.666 1.282 8.23 3.538 10.691 2.307 2.41 5.512 3.615 9.614 3.615 2.615 0 4.923-.231 6.923-.692 2.051-.513 4.153-1.231 6.307-2.154v5.922c-2.103.923-4.179 1.59-6.23 2-2.052.462-4.487.692-7.307.692-3.949 0-7.41-.794-10.384-2.384-2.974-1.59-5.307-3.948-6.999-7.076-1.641-3.128-2.461-6.999-2.461-11.614 0-4.513.743-8.384 2.23-11.614 1.539-3.231 3.666-5.718 6.384-7.461 2.769-1.743 5.974-2.615 9.614-2.615zm-.076 5.538c-3.231 0-5.795 1.051-7.692 3.153-1.846 2.051-2.948 4.923-3.307 8.615h20.997c-.051-3.487-.871-6.307-2.461-8.461-1.589-2.205-4.102-3.307-7.537-3.307zm47.414-5.538c4.922 0 8.64 1.205 11.152 3.615 2.513 2.41 3.769 6.256 3.769 11.537v26.843h-6.691v-26.381c0-6.615-3.077-9.922-9.23-9.922-4.564 0-7.717 1.282-9.461 3.845-1.743 2.564-2.615 6.256-2.615 11.076v21.382h-6.768v-41.226h5.461l1 5.615h.384c1.333-2.154 3.179-3.743 5.538-4.769a17.758 17.758 0 017.461-1.615zm43.623 0c3.487 0 6.512.769 9.076 2.307 2.564 1.539 4.512 3.718 5.845 6.538 1.385 2.769 2.077 6.025 2.077 9.768v4.077h-28.228c.103 4.666 1.282 8.23 3.538 10.691 2.308 2.41 5.513 3.615 9.615 3.615 2.615 0 4.922-.231 6.922-.692 2.051-.513 4.153-1.231 6.307-2.154v5.922c-2.102.923-4.179 1.59-6.23 2-2.051.462-4.487.692-7.307.692-3.948 0-7.409-.794-10.383-2.384-2.974-1.59-5.307-3.948-7-7.076-1.64-3.128-2.461-6.999-2.461-11.614 0-4.513.744-8.384 2.231-11.614 1.538-3.231 3.666-5.718 6.384-7.461 2.769-1.743 5.973-2.615 9.614-2.615zm-.077 5.538c-3.23 0-5.794 1.051-7.691 3.153-1.846 2.051-2.949 4.923-3.308 8.615h20.998c-.051-3.487-.872-6.307-2.461-8.461-1.59-2.205-4.102-3.307-7.538-3.307zm54.413 25.074c0 3.999-1.487 7.025-4.461 9.076s-6.973 3.076-11.998 3.076c-2.872 0-5.359-.23-7.461-.692-2.051-.461-3.871-1.102-5.461-1.923v-6.153c1.641.821 3.615 1.59 5.922 2.308 2.359.666 4.744.999 7.154.999 3.435 0 5.922-.538 7.46-1.615 1.539-1.128 2.308-2.615 2.308-4.461a4.777 4.777 0 00-.846-2.769c-.564-.82-1.59-1.641-3.077-2.461-1.436-.82-3.512-1.743-6.23-2.769-2.666-1.025-4.948-2.051-6.845-3.076-1.898-1.026-3.359-2.257-4.385-3.692-1.025-1.436-1.538-3.282-1.538-5.538 0-3.487 1.41-6.179 4.23-8.076 2.872-1.897 6.615-2.846 11.23-2.846 2.513 0 4.846.256 6.999.769 2.205.513 4.256 1.179 6.153 2l-2.307 5.384a45.527 45.527 0 00-5.461-1.846 22.294 22.294 0 00-5.845-.769c-2.769 0-4.897.461-6.384 1.384-1.436.872-2.154 2.077-2.154 3.615 0 1.18.333 2.154 1 2.923.666.769 1.769 1.538 3.307 2.307 1.59.77 3.692 1.641 6.307 2.615 2.615.975 4.846 1.975 6.692 3 1.846 1.026 3.256 2.282 4.23 3.769.974 1.436 1.461 3.256 1.461 5.461zm36.805 0c0 3.999-1.487 7.025-4.461 9.076s-6.973 3.076-11.998 3.076c-2.872 0-5.359-.23-7.461-.692-2.051-.461-3.872-1.102-5.461-1.923v-6.153c1.641.821 3.615 1.59 5.922 2.308 2.359.666 4.743.999 7.153.999 3.436 0 5.923-.538 7.461-1.615 1.538-1.128 2.308-2.615 2.308-4.461a4.778 4.778 0 00-.847-2.769c-.564-.82-1.589-1.641-3.076-2.461-1.436-.82-3.513-1.743-6.23-2.769-2.667-1.025-4.948-2.051-6.846-3.076-1.897-1.026-3.358-2.257-4.384-3.692-1.025-1.436-1.538-3.282-1.538-5.538 0-3.487 1.41-6.179 4.23-8.076 2.872-1.897 6.615-2.846 11.23-2.846 2.512 0 4.845.256 6.999.769 2.205.513 4.256 1.179 6.153 2l-2.307 5.384a45.587 45.587 0 00-5.461-1.846 22.296 22.296 0 00-5.846-.769c-2.769 0-4.897.461-6.384 1.384-1.435.872-2.153 2.077-2.153 3.615 0 1.18.333 2.154 1 2.923.666.769 1.769 1.538 3.307 2.307 1.59.77 3.692 1.641 6.307 2.615 2.615.975 4.846 1.975 6.692 3 1.846 1.026 3.256 2.282 4.23 3.769.974 1.436 1.461 3.256 1.461 5.461zm74.86-16.614c0 9.281-2.538 16.281-7.615 20.998-5.025 4.666-12.05 6.999-21.074 6.999H698.34v-54.917h16.921c5.486 0 10.255 1.026 14.306 3.077 4.102 2.051 7.256 5.076 9.46 9.076 2.205 3.999 3.308 8.922 3.308 14.767zm-7.307.231c0-7.332-1.82-12.691-5.461-16.075-3.589-3.436-8.691-5.153-15.306-5.153h-8.999v43.072h7.461c14.87 0 22.305-7.281 22.305-21.844zm34.186-14.152c5.025 0 8.743 1.102 11.153 3.307s3.615 5.717 3.615 10.537v28.074h-4.923l-1.308-5.845h-.307c-1.795 2.256-3.692 3.922-5.692 4.999-2 1.077-4.717 1.615-8.153 1.615-3.743 0-6.845-.974-9.306-2.922-2.462-2-3.692-5.102-3.692-9.307 0-4.102 1.615-7.256 4.845-9.46 3.231-2.257 8.204-3.487 14.922-3.692l6.999-.231v-2.461c0-3.436-.744-5.82-2.231-7.153-1.487-1.334-3.589-2-6.307-2-2.153 0-4.204.333-6.153 1a40.393 40.393 0 00-5.461 2.153l-2.076-5.076c1.794-.974 3.922-1.795 6.384-2.461a27.322 27.322 0 017.691-1.077zm8.076 21.767l-6.076.23c-5.128.205-8.692 1.026-10.691 2.462-1.949 1.435-2.923 3.461-2.923 6.076 0 2.307.692 3.999 2.077 5.076 1.435 1.077 3.256 1.615 5.461 1.615 3.435 0 6.307-.948 8.614-2.845 2.359-1.949 3.538-4.923 3.538-8.922v-3.692zm12.964-21.075h7.23l8.922 23.459a216.217 216.217 0 012.076 5.922 38.683 38.683 0 011.385 5.308h.308c.307-1.282.794-2.949 1.461-5a303.417 303.417 0 012.077-6.307l8.383-23.382h7.307l-17.767 46.918c-1.487 3.897-3.359 6.999-5.615 9.307-2.256 2.307-5.384 3.461-9.383 3.461-1.231 0-2.308-.077-3.231-.231a21.18 21.18 0 01-2.384-.385v-5.384c.564.103 1.23.206 2 .308.82.103 1.666.154 2.538.154 2.359 0 4.256-.667 5.691-2 1.436-1.333 2.59-3.102 3.462-5.307l2.153-5.461-16.613-41.38z"/></svg>